<svg xmlns="http://www.w3.org/2000/svg" xmlns:xlink="http://www.w3.org/1999/xlink" width="500" zoomAndPan="magnify" viewBox="0 0 375 374.999991" height="500" preserveAspectRatio="xMidYMid meet" version="1.2"><defs><clipPath id="25bd834727"><path d="M 0.714844 0.714844 L 374.285156 0.714844 L 374.285156 374.285156 L 0.714844 374.285156 Z M 0.714844 0.714844 "/></clipPath><clipPath id="0e47e52f9d"><path d="M 187.5 0.714844 C 84.34375 0.714844 0.714844 84.34375 0.714844 187.5 C 0.714844 290.65625 84.34375 374.285156 187.5 374.285156 C 290.65625 374.285156 374.285156 290.65625 374.285156 187.5 C 374.285156 84.34375 290.65625 0.714844 187.5 0.714844 Z M 187.5 0.714844 "/></clipPath><clipPath id="4d915034d3"><path d="M 112.5 51.300781 L 262.5 51.300781 L 262.5 201.300781 L 112.5 201.300781 Z M 112.5 51.300781 "/></clipPath><clipPath id="f72e04a77a"><path d="M 140.523438 151 L 234 151 L 234 158.207031 L 140.523438 158.207031 Z M 140.523438 151 "/></clipPath><clipPath id="2df3de4907"><path d="M 150 134.957031 L 186 134.957031 L 186 152 L 150 152 Z M 150 134.957031 "/></clipPath><clipPath id="b33aca538a"><path d="M 187 134.957031 L 224 134.957031 L 224 152 L 187 152 Z M 187 134.957031 "/></clipPath><clipPath id="16dcd06b4b"><path d="M 148.5 94.152344 L 225 94.152344 L 225 123 L 148.5 123 Z M 148.5 94.152344 "/></clipPath><clipPath id="f1c557f994"><path d="M 163 118 L 210 118 L 210 138.402344 L 163 138.402344 Z M 163 118 "/></clipPath><clipPath id="a5efd05e81"><path d="M 220 110 L 226.5 110 L 226.5 128 L 220 128 Z M 220 110 "/></clipPath></defs><g id="ffdffe6fba"><g clip-rule="nonzero" clip-path="url(#25bd834727)"><g clip-rule="nonzero" clip-path="url(#0e47e52f9d)"><path style=" stroke:none;fill-rule:nonzero;fill:#6356e4;fill-opacity:1;" d="M 0.714844 0.714844 L 374.285156 0.714844 L 374.285156 374.285156 L 0.714844 374.285156 Z M 0.714844 0.714844 "/></g></g><g clip-rule="nonzero" clip-path="url(#4d915034d3)"><path style=" stroke:none;fill-rule:nonzero;fill:#ffffff;fill-opacity:1;" d="M 187.5 51.300781 C 146 51.300781 112.5 84.800781 112.5 126.300781 C 112.5 167.800781 146 201.300781 187.5 201.300781 C 229 201.300781 262.5 167.800781 262.5 126.300781 C 262.5 84.800781 229 51.300781 187.5 51.300781 Z M 187.5 194.632812 C 149.832031 194.632812 119.167969 163.964844 119.167969 126.300781 C 119.167969 88.632812 149.832031 57.964844 187.5 57.964844 C 225.167969 57.964844 255.832031 88.632812 255.832031 126.300781 C 255.832031 163.964844 225.167969 194.632812 187.5 194.632812 Z M 187.5 194.632812 "/></g><g clip-rule="nonzero" clip-path="url(#f72e04a77a)"><path style=" stroke:none;fill-rule:nonzero;fill:#ffffff;fill-opacity:1;" d="M 232.074219 158.207031 L 190.660156 158.207031 C 190.296875 158.207031 189.933594 158.0625 189.644531 157.769531 L 187.027344 155.226562 L 184.414062 157.769531 C 184.121094 158.0625 183.757812 158.207031 183.394531 158.207031 L 141.980469 158.207031 C 141.183594 158.207031 140.527344 157.550781 140.527344 156.753906 C 140.527344 155.953125 141.183594 155.300781 141.980469 155.300781 L 182.8125 155.300781 L 186.011719 152.175781 C 186.59375 151.59375 187.464844 151.59375 188.046875 152.175781 L 191.242188 155.300781 L 232.074219 155.300781 C 232.875 155.300781 233.527344 155.953125 233.527344 156.753906 C 233.527344 157.550781 232.875 158.207031 232.074219 158.207031 Z M 232.074219 158.207031 "/></g><g clip-rule="nonzero" clip-path="url(#2df3de4907)"><path style=" stroke:none;fill-rule:nonzero;fill:#ffffff;fill-opacity:1;" d="M 150.335938 137.789062 L 158.328125 134.957031 C 158.328125 134.957031 178.308594 135.320312 185.9375 147.089844 L 185.9375 151.375 C 185.9375 151.375 174.3125 137.789062 150.335938 137.789062 Z M 150.335938 137.789062 "/></g><path style=" stroke:none;fill-rule:nonzero;fill:#ffffff;fill-opacity:1;" d="M 148.519531 140.332031 L 152.878906 138.878906 C 152.878906 138.878906 173.222656 138.878906 184.847656 151.011719 C 184.847656 151.085938 169.589844 141.058594 148.519531 140.332031 Z M 148.519531 140.332031 "/><path style=" stroke:none;fill-rule:nonzero;fill:#ffffff;fill-opacity:1;" d="M 146.339844 146.726562 L 148.519531 142.441406 C 148.519531 142.441406 171.769531 143.167969 184.121094 151.011719 C 184.121094 151.085938 155.058594 144.621094 146.339844 146.726562 Z M 146.339844 146.726562 "/><path style=" stroke:none;fill-rule:nonzero;fill:#ffffff;fill-opacity:1;" d="M 144.886719 150.359375 C 144.886719 150.359375 157.964844 146.074219 184.121094 152.539062 C 184.121094 152.539062 157.238281 149.707031 144.160156 152.539062 Z M 144.886719 150.359375 "/><g clip-rule="nonzero" clip-path="url(#b33aca538a)"><path style=" stroke:none;fill-rule:nonzero;fill:#ffffff;fill-opacity:1;" d="M 223.355469 137.789062 L 215.363281 134.957031 C 215.363281 134.957031 195.382812 135.320312 187.753906 147.089844 L 187.753906 151.375 C 187.753906 151.375 199.378906 137.789062 223.355469 137.789062 Z M 223.355469 137.789062 "/></g><path style=" stroke:none;fill-rule:nonzero;fill:#ffffff;fill-opacity:1;" d="M 225.171875 140.332031 L 220.8125 138.878906 C 220.8125 138.878906 200.46875 138.878906 188.84375 151.011719 C 188.84375 151.085938 204.101562 141.058594 225.171875 140.332031 Z M 225.171875 140.332031 "/><path style=" stroke:none;fill-rule:nonzero;fill:#ffffff;fill-opacity:1;" d="M 227.351562 146.726562 L 225.171875 142.441406 C 225.171875 142.441406 201.921875 143.167969 189.570312 151.011719 C 189.570312 151.085938 218.632812 144.621094 227.351562 146.726562 Z M 227.351562 146.726562 "/><path style=" stroke:none;fill-rule:nonzero;fill:#ffffff;fill-opacity:1;" d="M 228.804688 150.359375 C 228.804688 150.359375 215.726562 146.074219 189.570312 152.539062 C 189.570312 152.539062 216.453125 149.707031 229.53125 152.539062 Z M 228.804688 150.359375 "/><g clip-rule="nonzero" clip-path="url(#16dcd06b4b)"><path style=" stroke:none;fill-rule:nonzero;fill:#ffffff;fill-opacity:1;" d="M 186.476562 94.152344 L 148.5 108.371094 L 150.613281 109.164062 L 186.476562 122.589844 L 219.808594 110.113281 L 224.457031 108.371094 Z M 186.476562 94.152344 "/></g><g clip-rule="nonzero" clip-path="url(#f1c557f994)"><path style=" stroke:none;fill-rule:nonzero;fill:#ffffff;fill-opacity:1;" d="M 163.699219 118.203125 L 163.699219 130.15625 C 163.699219 134.707031 173.898438 138.398438 186.476562 138.398438 C 195.007812 138.398438 202.433594 136.703125 206.335938 134.191406 C 208.191406 133 209.253906 131.621094 209.253906 130.15625 L 209.253906 118.203125 L 186.480469 126.730469 Z M 163.699219 118.203125 "/></g><g clip-rule="nonzero" clip-path="url(#a5efd05e81)"><path style=" stroke:none;fill-rule:nonzero;fill:#ffffff;fill-opacity:1;" d="M 224.390625 110.453125 L 222.734375 111.070312 L 222.167969 115.230469 L 220.515625 127.328125 L 226.316406 124.539062 C 225.675781 119.84375 225.035156 115.148438 224.390625 110.453125 Z M 224.390625 110.453125 "/></g><g style="fill:#ffffff;fill-opacity:1;"><g transform="translate(77.271407, 283.011655)"><path style="stroke:none" d="M 31.8125 0.375 C 22.53125 0.375 15.285156 -1.941406 10.078125 -6.578125 C 4.878906 -11.222656 2.28125 -18.113281 2.28125 -27.25 C 2.28125 -36.332031 4.929688 -43.195312 10.234375 -47.84375 C 15.535156 -52.488281 23.238281 -54.8125 33.34375 -54.8125 L 62.265625 -54.8125 L 62.265625 -44.90625 L 34.1875 -44.90625 C 27.53125 -44.90625 22.613281 -43.507812 19.4375 -40.71875 C 16.269531 -37.9375 14.6875 -33.445312 14.6875 -27.25 C 14.6875 -21.363281 16.082031 -17.007812 18.875 -14.1875 C 21.664062 -11.375 25.753906 -9.84375 31.140625 -9.59375 L 31.140625 -30.75 L 65.234375 -30.75 L 65.234375 0.375 Z M 42.546875 -9.515625 L 53.0625 -9.515625 L 53.0625 -20.859375 L 42.546875 -20.859375 Z M 42.546875 -9.515625 "/></g></g><g style="fill:#ffffff;fill-opacity:1;"><g transform="translate(147.836825, 283.011655)"><path style="stroke:none" d="M 5.328125 0 L 5.328125 -54.421875 L 65.015625 -54.421875 L 65.015625 -44.53125 L 17.515625 -44.53125 L 17.515625 -32.5 L 60.59375 -32.5 L 60.59375 -22.609375 L 17.515625 -22.609375 L 17.515625 -9.890625 L 65.015625 -9.890625 L 65.015625 0 Z M 5.328125 0 "/></g></g><g style="fill:#ffffff;fill-opacity:1;"><g transform="translate(215.890207, 283.011655)"><path style="stroke:none" d="M 5.328125 0 L 5.328125 -54.421875 L 15.53125 -54.421875 L 40.734375 -36.765625 L 41.109375 -36.765625 L 66.3125 -54.421875 L 76.5 -54.421875 L 76.5 0 L 64.328125 0 L 64.328125 -39.203125 L 47.046875 -27.640625 L 47.046875 0 L 34.859375 0 L 34.859375 -27.640625 L 17.515625 -39.203125 L 17.515625 0 Z M 5.328125 0 "/></g></g></g></svg>